# xmcd
#
# Track frame offsets:
#	150
#	28333
#	60726
#	78786
#	110933
#	149903
#	167661
#	193923
#	228323
#	256643
#	283946
#
# Disc length: 4232 seconds
#
# Revision: 1
# Processed by: cddbd v1.5.2PL0 Copyright (c) Steve Scherf et al.
# Submitted via: audiograbber 1.83.01
#
DISCID=a610860b
DTITLE=GEORGE THOROGOOD and THE DESTROYERS - LIVE AT MONTREUX 2013
DYEAR=2013
DGENRE=
TTITLE0=1 Rock Party
TTITLE1=2 Who Do You Love
TTITLE2=3 Help Me
TTITLE3=4 I Drink Alone
TTITLE4=5 One Bourbon, One Scotch,  One Beer
TTITLE5=6 Cocaine Blues
TTITLE6=7 Get A Haircut
TTITLE7=8 Bad To The Bone
TTITLE8=9 Move It On Over
TTITLE9=10 Tail Dragger
TTITLE10=11 Madison Blues
EXTD=
EXTT0=
EXTT1=
EXTT2=
EXTT3=
EXTT4=
EXTT5=
EXTT6=
EXTT7=
EXTT8=
EXTT9=
EXTT10=
PLAYORDER=
